<?xml version="1.0" encoding="utf-8"?>
<!-- Generator: Adobe Illustrator 16.0.0, SVG Export Plug-In . SVG Version: 6.00 Build 0)  -->
<!DOCTYPE svg PUBLIC "-//W3C//DTD SVG 1.1//EN" "http://www.w3.org/Graphics/SVG/1.1/DTD/svg11.dtd">
<svg version="1.1" id="Layer_1" xmlns="http://www.w3.org/2000/svg" xmlns:xlink="http://www.w3.org/1999/xlink" x="0px" y="0px"
	 width="18px" height="18px" viewBox="0 0 18 18" enable-background="new 0 0 18 18" xml:space="preserve">
<g>
	<defs>
		<rect id="SVGID_1_" width="18" height="18"/>
	</defs>
	<clipPath id="SVGID_2_">
		<use xlink:href="#SVGID_1_"  overflow="visible"/>
	</clipPath>
	<path clip-path="url(#SVGID_2_)" fill="#231F20" d="M18,14.4V3.6C18,1.611,16.389,0,14.4,0H3.6C1.611,0,0,1.611,0,3.6v10.8
		C0,16.388,1.611,18,3.6,18h10.8C16.389,18,18,16.388,18,14.4 M12.6,9c0,1.989-1.61,3.6-3.6,3.6c-1.989,0-3.6-1.61-3.6-3.6
		c0-1.989,1.611-3.6,3.6-3.6C10.989,5.4,12.6,7.011,12.6,9 M14.4,5.4H12.6V3.6H14.4V5.4z"/>
</g>
</svg>
