<?xml version="1.0" encoding="utf-8"?>
<!-- Generator: Adobe Illustrator 16.0.0, SVG Export Plug-In . SVG Version: 6.00 Build 0)  -->
<!DOCTYPE svg PUBLIC "-//W3C//DTD SVG 1.1//EN" "http://www.w3.org/Graphics/SVG/1.1/DTD/svg11.dtd">
<svg version="1.1" id="Layer_1" xmlns="http://www.w3.org/2000/svg" xmlns:xlink="http://www.w3.org/1999/xlink" x="0px" y="0px"
	 width="141px" height="14px" viewBox="0 0 141 14" enable-background="new 0 0 141 14" xml:space="preserve">
<g>
	<polygon points="18.941,8.591 25.249,8.591 25.249,5.409 18.941,5.409 18.941,3.743 25.885,3.743 25.885,0.318 14.824,0.318 
		14.824,13.682 26.091,13.682 26.091,10.257 18.941,10.257 	"/>
	<path d="M38.575,7.486c1.366-0.505,2.002-1.964,2.002-3.35c0-2.527-2.021-3.819-4.361-3.819h-7.842v13.364h4.118v-4.66h2.19
		c1.628,0,1.74,1.328,1.853,2.602c0.056,0.692,0.131,1.385,0.337,2.059h4.117c-0.374-0.618-0.393-2.209-0.449-2.864
		C40.39,9.152,39.698,7.917,38.575,7.486z M34.644,6.158h-2.152V3.5h1.928c1.572,0,2.04,0.487,2.04,1.329
		C36.46,6.027,35.412,6.158,34.644,6.158z"/>
	<path d="M52.818,7.486c1.366-0.505,2.003-1.964,2.003-3.35c0-2.527-2.022-3.819-4.361-3.819h-7.843v13.364h4.118v-4.66h2.19
		c1.628,0,1.741,1.328,1.853,2.602c0.056,0.692,0.131,1.385,0.337,2.059h4.117c-0.374-0.618-0.393-2.209-0.449-2.864
		C54.634,9.152,53.941,7.917,52.818,7.486z M48.888,6.158h-2.153V3.5h1.928c1.572,0,2.04,0.487,2.04,1.329
		C50.703,6.027,49.655,6.158,48.888,6.158z"/>
	<polygon points="12.896,0.318 7.824,0.318 4.155,4.923 4.118,4.923 4.118,0.318 0,0.318 0,13.682 4.118,13.682 4.118,9.732 
		5.259,8.479 8.553,13.682 13.682,13.682 8.048,5.54 	"/>
	<path d="M137.238,5.54c-1.89-0.524-3.799-0.73-3.874-1.684c0-0.749,0.917-0.899,1.479-0.899c0.411,0,0.879,0.094,1.216,0.337
		c0.337,0.225,0.562,0.562,0.487,1.067h3.893C140.326,1.104,137.763,0,134.861,0c-2.751,0-5.39,1.329-5.39,4.417
		c0,2.694,2.414,3.275,4.528,3.875c2.303,0.655,2.884,0.842,2.884,1.534c0,0.991-1.03,1.217-1.704,1.217
		c-0.768,0-1.665-0.168-1.965-0.974c-0.094-0.243-0.15-0.543-0.15-0.88h-4.117c0.037,4.268,4.361,4.811,5.877,4.811
		c2.977,0,6.176-1.123,6.176-4.604C141,6.944,139.13,6.064,137.238,5.54z"/>
	<polygon points="108.527,5.241 106.301,0.318 101.753,0.318 106.45,8.76 106.45,13.682 110.567,13.682 110.567,8.76 115.359,0.318 
		110.849,0.318 	"/>
	<polygon points="61.69,5.241 59.463,0.318 54.914,0.318 59.612,8.76 59.612,13.682 63.73,13.682 63.73,8.76 68.521,0.318 
		64.011,0.318 	"/>
	<polygon points="120.356,8.591 126.663,8.591 126.663,5.409 120.356,5.409 120.356,3.743 127.301,3.743 127.301,0.318 
		116.238,0.318 116.238,13.682 127.507,13.682 127.507,10.257 120.356,10.257 	"/>
	<polygon points="84.271,4.96 80.415,4.96 80.415,0.318 76.299,0.318 76.299,13.682 80.415,13.682 80.415,8.385 84.271,8.385 
		84.271,13.682 88.39,13.682 88.39,0.318 84.271,0.318 	"/>
	<path d="M94.583,0.318l-4.922,13.364h4.137l0.599-1.909h4.249l0.561,1.909h4.269L98.608,0.318H94.583z M95.296,8.909l1.291-4.117
		h0.037l1.197,4.117H95.296z"/>
</g>
</svg>
